<svg xmlns="http://www.w3.org/2000/svg" xmlns:xlink="http://www.w3.org/1999/xlink" width="250" zoomAndPan="magnify" viewBox="0 0 187.5 187.499992" height="250" preserveAspectRatio="xMidYMid meet" version="1.0"><defs><clipPath id="3fd8209a39"><path d="M 0 0 L 187 0 L 187 187 L 0 187 Z M 0 0 " clip-rule="nonzero"/></clipPath><clipPath id="3a465b0f74"><path d="M 37.398438 0 L 149.601562 0 C 170.257812 0 187 16.746094 187 37.398438 L 187 149.601562 C 187 170.257812 170.257812 187 149.601562 187 L 37.398438 187 C 16.746094 187 0 170.257812 0 149.601562 L 0 37.398438 C 0 16.746094 16.746094 0 37.398438 0 Z M 37.398438 0 " clip-rule="nonzero"/></clipPath></defs><g clip-path="url(#3fd8209a39)"><g clip-path="url(#3a465b0f74)"><path fill="#242938" d="M 0 0 L 187 0 L 187 187 L 0 187 Z M 0 0 " fill-opacity="1" fill-rule="nonzero"/></g></g><path fill="#242839" d="M 187 93.5 C 187 95.03125 186.964844 96.558594 186.890625 98.089844 C 186.8125 99.617188 186.699219 101.140625 186.550781 102.664062 C 186.402344 104.1875 186.214844 105.707031 185.988281 107.21875 C 185.765625 108.734375 185.503906 110.242188 185.203125 111.742188 C 184.90625 113.242188 184.570312 114.734375 184.199219 116.21875 C 183.828125 117.703125 183.417969 119.179688 182.976562 120.640625 C 182.53125 122.105469 182.050781 123.558594 181.535156 125 C 181.019531 126.441406 180.46875 127.867188 179.882812 129.28125 C 179.296875 130.695312 178.679688 132.09375 178.023438 133.476562 C 177.371094 134.859375 176.683594 136.226562 175.960938 137.578125 C 175.238281 138.925781 174.484375 140.257812 173.699219 141.570312 C 172.914062 142.882812 172.09375 144.175781 171.242188 145.445312 C 170.394531 146.71875 169.511719 147.96875 168.601562 149.199219 C 167.691406 150.429688 166.75 151.632812 165.777344 152.816406 C 164.808594 154 163.808594 155.15625 162.78125 156.292969 C 161.753906 157.425781 160.699219 158.535156 159.617188 159.617188 C 158.535156 160.699219 157.425781 161.753906 156.292969 162.78125 C 155.15625 163.808594 154 164.808594 152.816406 165.777344 C 151.632812 166.75 150.429688 167.691406 149.199219 168.601562 C 147.96875 169.511719 146.71875 170.394531 145.445312 171.242188 C 144.175781 172.09375 142.882812 172.914062 141.570312 173.699219 C 140.257812 174.484375 138.925781 175.238281 137.578125 175.960938 C 136.226562 176.683594 134.859375 177.371094 133.476562 178.023438 C 132.09375 178.679688 130.695312 179.296875 129.28125 179.882812 C 127.867188 180.46875 126.441406 181.019531 125 181.535156 C 123.558594 182.050781 122.105469 182.53125 120.640625 182.976562 C 119.179688 183.417969 117.703125 183.828125 116.21875 184.199219 C 114.734375 184.570312 113.242188 184.90625 111.742188 185.203125 C 110.242188 185.503906 108.734375 185.765625 107.21875 185.988281 C 105.707031 186.214844 104.1875 186.402344 102.664062 186.550781 C 101.140625 186.699219 99.617188 186.8125 98.089844 186.890625 C 96.558594 186.964844 95.03125 187 93.5 187 C 91.96875 187 90.441406 186.964844 88.914062 186.890625 C 87.382812 186.8125 85.859375 186.699219 84.335938 186.550781 C 82.8125 186.402344 81.292969 186.214844 79.78125 185.988281 C 78.269531 185.765625 76.761719 185.503906 75.257812 185.203125 C 73.757812 184.90625 72.265625 184.570312 70.78125 184.199219 C 69.296875 183.828125 67.824219 183.417969 66.359375 182.976562 C 64.894531 182.53125 63.441406 182.050781 62 181.535156 C 60.558594 181.019531 59.132812 180.46875 57.71875 179.882812 C 56.304688 179.296875 54.90625 178.679688 53.523438 178.023438 C 52.140625 177.371094 50.773438 176.683594 49.425781 175.960938 C 48.074219 175.238281 46.746094 174.484375 45.433594 173.699219 C 44.121094 172.914062 42.828125 172.09375 41.554688 171.242188 C 40.28125 170.394531 39.03125 169.511719 37.800781 168.601562 C 36.574219 167.691406 35.367188 166.75 34.183594 165.777344 C 33 164.808594 31.84375 163.808594 30.710938 162.78125 C 29.574219 161.753906 28.46875 160.699219 27.386719 159.617188 C 26.304688 158.535156 25.25 157.425781 24.222656 156.292969 C 23.195312 155.15625 22.195312 154 21.222656 152.816406 C 20.253906 151.632812 19.3125 150.429688 18.398438 149.199219 C 17.488281 147.96875 16.609375 146.71875 15.757812 145.445312 C 14.90625 144.175781 14.089844 142.882812 13.300781 141.570312 C 12.515625 140.257812 11.761719 138.925781 11.039062 137.578125 C 10.320312 136.226562 9.632812 134.859375 8.976562 133.476562 C 8.324219 132.09375 7.703125 130.695312 7.117188 129.28125 C 6.53125 127.867188 5.980469 126.441406 5.464844 125 C 4.949219 123.558594 4.46875 122.105469 4.027344 120.640625 C 3.582031 119.179688 3.175781 117.703125 2.800781 116.21875 C 2.429688 114.734375 2.09375 113.242188 1.796875 111.742188 C 1.5 110.242188 1.238281 108.734375 1.011719 107.21875 C 0.789062 105.707031 0.601562 104.1875 0.449219 102.664062 C 0.300781 101.140625 0.1875 99.617188 0.113281 98.089844 C 0.0390625 96.558594 0 95.03125 0 93.5 C 0 91.96875 0.0390625 90.441406 0.113281 88.914062 C 0.1875 87.382812 0.300781 85.859375 0.449219 84.335938 C 0.601562 82.8125 0.789062 81.292969 1.011719 79.78125 C 1.238281 78.269531 1.5 76.761719 1.796875 75.257812 C 2.09375 73.757812 2.429688 72.265625 2.800781 70.78125 C 3.175781 69.296875 3.582031 67.824219 4.027344 66.359375 C 4.46875 64.894531 4.949219 63.441406 5.464844 62 C 5.980469 60.558594 6.53125 59.132812 7.117188 57.71875 C 7.703125 56.304688 8.324219 54.90625 8.976562 53.523438 C 9.632812 52.140625 10.320312 50.773438 11.039062 49.425781 C 11.761719 48.074219 12.515625 46.746094 13.300781 45.433594 C 14.089844 44.121094 14.90625 42.828125 15.757812 41.554688 C 16.609375 40.28125 17.488281 39.03125 18.398438 37.800781 C 19.3125 36.574219 20.253906 35.367188 21.222656 34.183594 C 22.195312 33 23.195312 31.84375 24.222656 30.710938 C 25.25 29.574219 26.304688 28.46875 27.386719 27.386719 C 28.46875 26.304688 29.574219 25.25 30.710938 24.222656 C 31.84375 23.195312 33 22.195312 34.183594 21.222656 C 35.367188 20.253906 36.574219 19.3125 37.800781 18.398438 C 39.03125 17.488281 40.28125 16.609375 41.554688 15.757812 C 42.828125 14.90625 44.121094 14.089844 45.433594 13.300781 C 46.746094 12.515625 48.074219 11.761719 49.425781 11.039062 C 50.773438 10.320312 52.140625 9.632812 53.523438 8.976562 C 54.90625 8.324219 56.304688 7.703125 57.71875 7.117188 C 59.132812 6.53125 60.558594 5.980469 62 5.464844 C 63.441406 4.949219 64.894531 4.46875 66.359375 4.027344 C 67.824219 3.582031 69.296875 3.175781 70.78125 2.800781 C 72.265625 2.429688 73.757812 2.09375 75.257812 1.796875 C 76.761719 1.5 78.269531 1.238281 79.78125 1.011719 C 81.292969 0.789062 82.8125 0.601562 84.335938 0.449219 C 85.859375 0.300781 87.382812 0.1875 88.914062 0.113281 C 90.441406 0.0390625 91.96875 0 93.5 0 C 95.03125 0 96.558594 0.0390625 98.089844 0.113281 C 99.617188 0.1875 101.140625 0.300781 102.664062 0.449219 C 104.1875 0.601562 105.707031 0.789062 107.21875 1.011719 C 108.734375 1.238281 110.242188 1.5 111.742188 1.796875 C 113.242188 2.09375 114.734375 2.429688 116.21875 2.800781 C 117.703125 3.175781 119.179688 3.582031 120.640625 4.027344 C 122.105469 4.46875 123.558594 4.949219 125 5.464844 C 126.441406 5.980469 127.867188 6.53125 129.28125 7.117188 C 130.695312 7.703125 132.09375 8.324219 133.476562 8.976562 C 134.859375 9.632812 136.226562 10.320312 137.578125 11.039062 C 138.925781 11.761719 140.257812 12.515625 141.570312 13.300781 C 142.882812 14.089844 144.175781 14.90625 145.445312 15.757812 C 146.71875 16.609375 147.96875 17.488281 149.199219 18.398438 C 150.429688 19.3125 151.632812 20.253906 152.816406 21.222656 C 154 22.195312 155.15625 23.195312 156.292969 24.222656 C 157.425781 25.25 158.535156 26.304688 159.617188 27.386719 C 160.699219 28.46875 161.753906 29.574219 162.78125 30.710938 C 163.808594 31.84375 164.808594 33 165.777344 34.183594 C 166.75 35.367188 167.691406 36.574219 168.601562 37.800781 C 169.511719 39.03125 170.394531 40.28125 171.242188 41.554688 C 172.09375 42.828125 172.914062 44.121094 173.699219 45.433594 C 174.484375 46.746094 175.238281 48.074219 175.960938 49.425781 C 176.683594 50.773438 177.371094 52.140625 178.023438 53.523438 C 178.679688 54.90625 179.296875 56.304688 179.882812 57.71875 C 180.46875 59.132812 181.019531 60.558594 181.535156 62 C 182.050781 63.441406 182.53125 64.894531 182.976562 66.359375 C 183.417969 67.824219 183.828125 69.296875 184.199219 70.78125 C 184.570312 72.265625 184.90625 73.757812 185.203125 75.257812 C 185.503906 76.761719 185.765625 78.269531 185.988281 79.78125 C 186.214844 81.292969 186.402344 82.8125 186.550781 84.335938 C 186.699219 85.859375 186.8125 87.382812 186.890625 88.914062 C 186.964844 90.441406 187 91.96875 187 93.5 Z M 187 93.5 " fill-opacity="1" fill-rule="nonzero"/><path fill="#ffffff" d="M 150.402344 113.6875 L 122.582031 113.6875 C 121.742188 113.6875 121.015625 113.003906 121.015625 112.125 L 121.015625 94.339844 L 66.0625 94.339844 L 66.0625 112.125 C 66.0625 112.964844 65.375 113.6875 64.496094 113.6875 L 36.714844 113.6875 C 35.875 113.6875 35.148438 113.003906 35.148438 112.125 L 35.148438 73.542969 C 35.148438 72.703125 35.835938 71.976562 36.714844 71.976562 L 150.402344 71.976562 C 151.242188 71.976562 151.96875 72.664062 151.96875 73.542969 L 151.96875 112.125 C 151.96875 112.964844 151.242188 113.6875 150.402344 113.6875 Z M 124.144531 110.558594 L 148.875 110.558594 L 148.875 75.066406 L 38.277344 75.066406 L 38.277344 110.558594 L 63.007812 110.558594 L 63.007812 92.8125 C 63.007812 91.972656 63.695312 91.25 64.574219 91.25 L 122.621094 91.25 C 123.460938 91.25 124.183594 91.9375 124.183594 92.8125 Z M 124.144531 110.558594 " fill-opacity="1" fill-rule="nonzero"/><path fill="#ffffff" d="M 138.382812 113.6875 L 122.582031 113.6875 C 121.742188 113.6875 121.015625 113.003906 121.015625 112.125 L 121.015625 92.851562 C 121.015625 92.011719 121.703125 91.289062 122.582031 91.289062 L 138.382812 91.289062 C 139.21875 91.289062 139.945312 91.972656 139.945312 92.851562 L 139.945312 112.125 C 139.945312 112.964844 139.21875 113.6875 138.382812 113.6875 Z M 124.144531 110.558594 L 136.855469 110.558594 L 136.855469 94.339844 L 124.144531 94.339844 Z M 64.535156 113.6875 L 48.734375 113.6875 C 47.894531 113.6875 47.171875 113.003906 47.171875 112.125 L 47.171875 92.851562 C 47.171875 92.011719 47.855469 91.289062 48.734375 91.289062 L 64.535156 91.289062 C 65.375 91.289062 66.097656 91.972656 66.097656 92.851562 L 66.097656 112.125 C 66.097656 112.964844 65.414062 113.6875 64.535156 113.6875 Z M 50.261719 110.558594 L 62.96875 110.558594 L 62.96875 94.339844 L 50.261719 94.339844 Z M 50.261719 110.558594 " fill-opacity="1" fill-rule="nonzero"/><path fill="#ffffff" d="M 122.582031 152.960938 L 64.535156 152.960938 C 63.695312 152.960938 62.96875 152.273438 62.96875 151.394531 L 62.96875 92.8125 C 62.96875 91.972656 63.65625 91.25 64.535156 91.25 L 122.582031 91.25 C 123.421875 91.25 124.144531 91.9375 124.144531 92.8125 L 124.144531 151.394531 C 124.144531 152.234375 123.460938 152.960938 122.582031 152.960938 Z M 66.097656 149.867188 L 121.054688 149.867188 L 121.054688 94.339844 L 66.097656 94.339844 Z M 66.097656 149.867188 " fill-opacity="1" fill-rule="nonzero"/><path fill="#ffffff" d="M 122.582031 75.066406 L 64.535156 75.066406 C 63.695312 75.066406 62.96875 74.378906 62.96875 73.503906 L 62.96875 35.988281 C 62.96875 35.148438 63.65625 34.421875 64.535156 34.421875 L 122.582031 34.421875 C 123.421875 34.421875 124.144531 35.109375 124.144531 35.988281 L 124.144531 73.503906 C 124.144531 74.378906 123.460938 75.066406 122.582031 75.066406 Z M 66.097656 71.976562 L 121.054688 71.976562 L 121.054688 37.515625 L 66.097656 37.515625 Z M 66.097656 71.976562 " fill-opacity="1" fill-rule="nonzero"/><path fill="#ffffff" d="M 88.84375 121.816406 L 86.898438 121.816406 C 81.289062 121.816406 76.746094 117.238281 76.746094 111.667969 C 76.746094 106.09375 81.328125 101.515625 86.898438 101.515625 L 88.84375 101.515625 C 89.683594 101.515625 90.410156 102.203125 90.410156 103.078125 C 90.410156 103.957031 89.722656 104.644531 88.84375 104.644531 L 86.898438 104.644531 C 83.003906 104.644531 79.800781 107.8125 79.800781 111.703125 C 79.800781 115.597656 82.96875 118.765625 86.898438 118.765625 L 88.84375 118.765625 C 89.683594 118.765625 90.410156 119.453125 90.410156 120.328125 C 90.410156 121.207031 89.722656 121.816406 88.84375 121.816406 Z M 88.84375 121.816406 " fill-opacity="1" fill-rule="nonzero"/><path fill="#ffffff" d="M 102.46875 121.816406 C 101.820312 121.816406 101.246094 121.398438 101.019531 120.789062 L 94.644531 103.539062 C 94.339844 102.734375 94.761719 101.859375 95.5625 101.554688 C 96.363281 101.246094 97.242188 101.667969 97.546875 102.46875 L 102.507812 115.828125 L 107.429688 102.46875 C 107.734375 101.667969 108.613281 101.246094 109.414062 101.554688 C 110.214844 101.859375 110.597656 102.734375 110.332031 103.539062 L 103.957031 120.789062 C 103.691406 121.398438 103.117188 121.816406 102.46875 121.816406 Z M 102.46875 121.816406 " fill-opacity="1" fill-rule="nonzero"/><path fill="#ffffff" d="M 115.023438 132.617188 L 72.128906 132.617188 C 71.289062 132.617188 70.5625 131.929688 70.5625 131.054688 C 70.5625 130.175781 71.25 129.488281 72.128906 129.488281 L 115.023438 129.488281 C 115.863281 129.488281 116.589844 130.175781 116.589844 131.054688 C 116.589844 131.929688 115.863281 132.617188 115.023438 132.617188 Z M 115.023438 132.617188 " fill-opacity="1" fill-rule="nonzero"/><path fill="#ffffff" d="M 115.023438 142.769531 L 72.128906 142.769531 C 71.289062 142.769531 70.5625 142.082031 70.5625 141.203125 C 70.5625 140.367188 71.25 139.640625 72.128906 139.640625 L 115.023438 139.640625 C 115.863281 139.640625 116.589844 140.328125 116.589844 141.203125 C 116.550781 142.082031 115.863281 142.769531 115.023438 142.769531 Z M 115.023438 142.769531 " fill-opacity="1" fill-rule="nonzero"/><path fill="#ffffff" d="M 130.441406 75.066406 L 122.582031 75.066406 C 121.742188 75.066406 121.015625 74.378906 121.015625 73.503906 L 121.015625 54.765625 C 121.015625 53.925781 121.703125 53.199219 122.582031 53.199219 L 130.441406 53.199219 C 131.28125 53.199219 132.007812 53.886719 132.007812 54.765625 L 132.007812 73.542969 C 131.96875 74.378906 131.28125 75.066406 130.441406 75.066406 Z M 124.144531 71.976562 L 128.917969 71.976562 L 128.917969 56.292969 L 124.144531 56.292969 Z M 64.535156 75.066406 L 56.671875 75.066406 C 55.832031 75.066406 55.109375 74.378906 55.109375 73.503906 L 55.109375 54.765625 C 55.109375 53.925781 55.796875 53.199219 56.671875 53.199219 L 64.535156 53.199219 C 65.375 53.199219 66.097656 53.886719 66.097656 54.765625 L 66.097656 73.542969 C 66.097656 74.378906 65.414062 75.066406 64.535156 75.066406 Z M 58.238281 71.976562 L 63.007812 71.976562 L 63.007812 56.292969 L 58.238281 56.292969 Z M 58.238281 71.976562 " fill-opacity="1" fill-rule="nonzero"/><path fill="#ffffff" d="M 135.441406 84.722656 L 131.28125 84.722656 C 130.441406 84.722656 129.71875 84.035156 129.71875 83.160156 C 129.71875 82.320312 130.40625 81.59375 131.28125 81.59375 L 135.441406 81.59375 C 136.28125 81.59375 137.007812 82.28125 137.007812 83.160156 C 137.007812 83.996094 136.28125 84.722656 135.441406 84.722656 Z M 135.441406 84.722656 " fill-opacity="1" fill-rule="nonzero"/><path fill="#ffffff" d="M 125.480469 84.722656 L 121.320312 84.722656 C 120.480469 84.722656 119.757812 84.035156 119.757812 83.160156 C 119.757812 82.320312 120.445312 81.59375 121.320312 81.59375 L 125.480469 81.59375 C 126.320312 81.59375 127.046875 82.28125 127.046875 83.160156 C 127.046875 83.996094 126.320312 84.722656 125.480469 84.722656 Z M 125.480469 84.722656 " fill-opacity="1" fill-rule="nonzero"/></svg>