<svg xmlns="http://www.w3.org/2000/svg" xmlns:xlink="http://www.w3.org/1999/xlink" width="250" zoomAndPan="magnify" viewBox="0 0 187.5 187.499992" height="250" preserveAspectRatio="xMidYMid meet" version="1.0"><defs><clipPath id="1e7f27045f"><path d="M 0 0 L 187 0 L 187 187 L 0 187 Z M 0 0 " clip-rule="nonzero"/></clipPath><clipPath id="aa94cd4e2b"><path d="M 37.398438 0 L 149.601562 0 C 170.257812 0 187 16.746094 187 37.398438 L 187 149.601562 C 187 170.257812 170.257812 187 149.601562 187 L 37.398438 187 C 16.746094 187 0 170.257812 0 149.601562 L 0 37.398438 C 0 16.746094 16.746094 0 37.398438 0 Z M 37.398438 0 " clip-rule="nonzero"/></clipPath><clipPath id="23fbc94c7f"><path d="M 0 0 L 187 0 L 187 187 L 0 187 Z M 0 0 " clip-rule="nonzero"/></clipPath><clipPath id="df7ca138ac"><path d="M 51 35 L 138 35 L 138 187 L 51 187 Z M 51 35 " clip-rule="nonzero"/></clipPath></defs><g clip-path="url(#1e7f27045f)"><g clip-path="url(#aa94cd4e2b)"><path fill="#0866ff" d="M 0 0 L 187 0 L 187 187 L 0 187 Z M 0 0 " fill-opacity="1" fill-rule="nonzero"/></g></g><g clip-path="url(#23fbc94c7f)"><path fill="#0866ff" d="M 188.621094 94.996094 C 188.621094 42.53125 146.089844 0 93.625 0 C 41.160156 0 -1.371094 42.53125 -1.371094 94.996094 C -1.371094 139.546875 29.296875 176.929688 70.675781 187.195312 L 70.675781 124.027344 L 51.085938 124.027344 L 51.085938 94.996094 L 70.675781 94.996094 L 70.675781 82.488281 C 70.675781 50.152344 85.308594 35.167969 117.050781 35.167969 C 123.070312 35.167969 133.457031 36.347656 137.703125 37.527344 L 137.703125 63.84375 C 135.460938 63.605469 131.566406 63.488281 126.730469 63.488281 C 111.152344 63.488281 105.132812 69.390625 105.132812 84.730469 L 105.132812 94.996094 L 136.164062 94.996094 L 130.832031 124.027344 L 105.132812 124.027344 L 105.132812 189.296875 C 152.171875 183.617188 188.621094 143.566406 188.621094 94.996094 " fill-opacity="1" fill-rule="nonzero"/></g><g clip-path="url(#df7ca138ac)"><path fill="#ffffff" d="M 130.832031 124.027344 L 136.164062 94.996094 L 105.132812 94.996094 L 105.132812 84.730469 C 105.132812 69.390625 111.152344 63.488281 126.726562 63.488281 C 131.566406 63.488281 135.460938 63.605469 137.703125 63.84375 L 137.703125 37.527344 C 133.453125 36.347656 123.070312 35.167969 117.050781 35.167969 C 85.308594 35.167969 70.675781 50.152344 70.675781 82.488281 L 70.675781 94.996094 L 51.085938 94.996094 L 51.085938 124.027344 L 70.675781 124.027344 L 70.675781 187.195312 C 78.027344 189.019531 85.710938 189.992188 93.625 189.992188 C 97.519531 189.992188 101.359375 189.753906 105.132812 189.296875 L 105.132812 124.027344 Z M 130.832031 124.027344 " fill-opacity="1" fill-rule="nonzero"/></g></svg>