<svg xmlns="http://www.w3.org/2000/svg" xmlns:xlink="http://www.w3.org/1999/xlink" width="250" zoomAndPan="magnify" viewBox="0 0 187.5 187.499992" height="250" preserveAspectRatio="xMidYMid meet" version="1.2"><defs><clipPath id="b8673f7130"><path d="M 0 0 L 187 0 L 187 187 L 0 187 Z M 0 0 "/></clipPath><clipPath id="adb3e793b0"><path d="M 37.398438 0 L 149.601562 0 C 170.257812 0 187 16.746094 187 37.398438 L 187 149.601562 C 187 170.257812 170.257812 187 149.601562 187 L 37.398438 187 C 16.746094 187 0 170.257812 0 149.601562 L 0 37.398438 C 0 16.746094 16.746094 0 37.398438 0 Z M 37.398438 0 "/></clipPath><clipPath id="e537789c9c"><path d="M 3 3 L 183.960938 3 L 183.960938 183.960938 L 3 183.960938 Z M 3 3 "/></clipPath><clipPath id="f49ec10254"><path d="M 2.941406 2.941406 L 183.960938 2.941406 L 183.960938 183.960938 L 2.941406 183.960938 Z M 2.941406 2.941406 "/></clipPath></defs><g id="bd1c098ccd"><g clip-rule="nonzero" clip-path="url(#b8673f7130)"><g clip-rule="nonzero" clip-path="url(#adb3e793b0)"><path style=" stroke:none;fill-rule:nonzero;fill:#009385;fill-opacity:1;" d="M 0 0 L 187 0 L 187 187 L 0 187 Z M 0 0 "/></g></g><g clip-rule="nonzero" clip-path="url(#e537789c9c)"><path style=" stroke:none;fill-rule:nonzero;fill:#ffffff;fill-opacity:1;" d="M 183.390625 93.449219 C 183.390625 143.121094 143.121094 183.390625 93.449219 183.390625 C 43.78125 183.390625 3.511719 143.121094 3.511719 93.449219 C 3.511719 43.78125 43.78125 3.511719 93.449219 3.511719 C 143.121094 3.511719 183.390625 43.78125 183.390625 93.449219 Z M 183.390625 93.449219 "/></g><g clip-rule="nonzero" clip-path="url(#f49ec10254)"><path style=" stroke:none;fill-rule:nonzero;fill:#ffffff;fill-opacity:1;" d="M 93.449219 2.941406 C 43.539062 2.941406 2.941406 43.539062 2.941406 93.449219 C 2.941406 143.363281 43.539062 183.960938 93.449219 183.960938 C 143.363281 183.960938 183.960938 143.363281 183.960938 93.449219 C 183.960938 43.539062 143.363281 2.941406 93.449219 2.941406 Z M 93.449219 182.820312 C 44.167969 182.820312 4.082031 142.734375 4.082031 93.449219 C 4.082031 44.167969 44.167969 4.082031 93.449219 4.082031 C 142.734375 4.082031 182.820312 44.167969 182.820312 93.449219 C 182.820312 142.734375 142.734375 182.820312 93.449219 182.820312 Z M 93.449219 182.820312 "/></g><path style=" stroke:none;fill-rule:nonzero;fill:#009385;fill-opacity:1;" d="M 93.5625 0.3125 C 41.847656 0.3125 0 42.035156 0 93.5 C 0 144.964844 41.847656 186.6875 93.4375 186.6875 C 145.027344 186.6875 187 144.964844 187 93.5 C 187 42.035156 145.152344 0.3125 93.5625 0.3125 Z M 87.066406 42.535156 L 145.902344 42.535156 L 86.816406 84.007812 L 127.164062 84.007812 L 41.097656 144.46875 L 59.835938 102.996094 L 68.328125 84.007812 Z M 87.066406 42.535156 "/></g></svg>