<svg xmlns="http://www.w3.org/2000/svg" xmlns:xlink="http://www.w3.org/1999/xlink" width="250" zoomAndPan="magnify" viewBox="0 0 187.5 187.499992" height="250" preserveAspectRatio="xMidYMid meet" version="1.0"><defs><clipPath id="f620b15746"><path d="M 0 0 L 187 0 L 187 187 L 0 187 Z M 0 0 " clip-rule="nonzero"/></clipPath><clipPath id="5b386fce60"><path d="M 37.398438 0 L 149.601562 0 C 170.257812 0 187 16.746094 187 37.398438 L 187 149.601562 C 187 170.257812 170.257812 187 149.601562 187 L 37.398438 187 C 16.746094 187 0 170.257812 0 149.601562 L 0 37.398438 C 0 16.746094 16.746094 0 37.398438 0 Z M 37.398438 0 " clip-rule="nonzero"/></clipPath><clipPath id="8ea9463b95"><path d="M 18.699219 66 L 53 66 L 53 149.667969 L 18.699219 149.667969 Z M 18.699219 66 " clip-rule="nonzero"/></clipPath><clipPath id="28244bebfa"><path d="M 134 66 L 168.300781 66 L 168.300781 149.667969 L 134 149.667969 Z M 134 66 " clip-rule="nonzero"/></clipPath><clipPath id="4e94692800"><path d="M 134 37.46875 L 168.300781 37.46875 L 168.300781 92 L 134 92 Z M 134 37.46875 " clip-rule="nonzero"/></clipPath><clipPath id="4611d3da9c"><path d="M 18.699219 37.46875 L 53 37.46875 L 53 92 L 18.699219 92 Z M 18.699219 37.46875 " clip-rule="nonzero"/></clipPath></defs><g clip-path="url(#f620b15746)"><g clip-path="url(#5b386fce60)"><path fill="#242938" d="M 0 0 L 187 0 L 187 187 L 0 187 Z M 0 0 " fill-opacity="1" fill-rule="nonzero"/></g></g><g clip-path="url(#8ea9463b95)"><path fill="#4285f4" d="M 28.980469 149.667969 L 52.75 149.667969 L 52.75 91.867188 L 18.792969 66.367188 L 18.792969 139.46875 C 18.792969 145.113281 23.359375 149.667969 28.980469 149.667969 " fill-opacity="1" fill-rule="nonzero"/></g><g clip-path="url(#28244bebfa)"><path fill="#34a853" d="M 134.25 149.667969 L 158.019531 149.667969 C 163.65625 149.667969 168.207031 145.097656 168.207031 139.46875 L 168.207031 66.367188 L 134.25 91.867188 " fill-opacity="1" fill-rule="nonzero"/></g><g clip-path="url(#4e94692800)"><path fill="#fbbc04" d="M 134.25 47.667969 L 134.25 91.867188 L 168.207031 66.367188 L 168.207031 52.769531 C 168.207031 40.152344 153.828125 32.964844 143.757812 40.527344 " fill-opacity="1" fill-rule="nonzero"/></g><path fill="#ea4335" d="M 52.75 91.867188 L 52.75 47.667969 L 93.5 78.269531 L 134.25 47.667969 L 134.25 91.867188 L 93.5 122.46875 " fill-opacity="1" fill-rule="nonzero"/><g clip-path="url(#4611d3da9c)"><path fill="#c5221f" d="M 18.792969 52.769531 L 18.792969 66.367188 L 52.75 91.867188 L 52.75 47.667969 L 43.242188 40.527344 C 33.15625 32.964844 18.792969 40.152344 18.792969 52.769531 " fill-opacity="1" fill-rule="nonzero"/></g></svg>