<svg xmlns="http://www.w3.org/2000/svg" xmlns:xlink="http://www.w3.org/1999/xlink" width="250" zoomAndPan="magnify" viewBox="0 0 187.5 187.499992" height="250" preserveAspectRatio="xMidYMid meet" version="1.0"><defs><clipPath id="05ddff92db"><path d="M 0 0 L 187 0 L 187 187 L 0 187 Z M 0 0 " clip-rule="nonzero"/></clipPath><clipPath id="2f5efdfbc9"><path d="M 37.398438 0 L 149.601562 0 C 170.257812 0 187 16.746094 187 37.398438 L 187 149.601562 C 187 170.257812 170.257812 187 149.601562 187 L 37.398438 187 C 16.746094 187 0 170.257812 0 149.601562 L 0 37.398438 C 0 16.746094 16.746094 0 37.398438 0 Z M 37.398438 0 " clip-rule="nonzero"/></clipPath><clipPath id="2a4d11713b"><path d="M 18.699219 18.960938 L 94 18.960938 L 94 140 L 18.699219 140 Z M 18.699219 18.960938 " clip-rule="nonzero"/></clipPath><clipPath id="ef3dfa8108"><path d="M 93 18.960938 L 168.300781 18.960938 L 168.300781 140 L 93 140 Z M 93 18.960938 " clip-rule="nonzero"/></clipPath><clipPath id="17cbf3f8de"><path d="M 49 81 L 138 81 L 138 168.5625 L 49 168.5625 Z M 49 81 " clip-rule="nonzero"/></clipPath></defs><g clip-path="url(#05ddff92db)"><g clip-path="url(#2f5efdfbc9)"><path fill="#242938" d="M 0 0 L 187 0 L 187 187 L 0 187 Z M 0 0 " fill-opacity="1" fill-rule="nonzero"/></g></g><g clip-path="url(#2a4d11713b)"><path fill="#4285f4" d="M 93.5 139.085938 L 18.699219 78.179688 L 93.5 18.960938 Z M 93.5 139.085938 " fill-opacity="1" fill-rule="nonzero"/></g><g clip-path="url(#ef3dfa8108)"><path fill="#356ac3" d="M 93.5 139.085938 L 168.300781 78.179688 L 93.5 18.960938 Z M 93.5 139.085938 " fill-opacity="1" fill-rule="nonzero"/></g><g clip-path="url(#17cbf3f8de)"><path fill="#a0c3ff" d="M 137.132812 124.929688 C 137.132812 126.359375 137.0625 127.785156 136.925781 129.207031 C 136.785156 130.628906 136.574219 132.039062 136.296875 133.441406 C 136.015625 134.84375 135.671875 136.226562 135.253906 137.59375 C 134.839844 138.960938 134.359375 140.308594 133.8125 141.628906 C 133.265625 142.949219 132.65625 144.238281 131.980469 145.496094 C 131.308594 146.757812 130.574219 147.984375 129.78125 149.171875 C 128.988281 150.359375 128.136719 151.503906 127.230469 152.609375 C 126.324219 153.714844 125.363281 154.773438 124.355469 155.78125 C 123.34375 156.792969 122.285156 157.75 121.179688 158.660156 C 120.078125 159.566406 118.929688 160.414062 117.742188 161.210938 C 116.554688 162.003906 115.328125 162.738281 114.070312 163.410156 C 112.808594 164.085938 111.519531 164.695312 110.199219 165.242188 C 108.878906 165.789062 107.535156 166.269531 106.167969 166.683594 C 104.800781 167.097656 103.414062 167.445312 102.011719 167.722656 C 100.613281 168.003906 99.199219 168.210938 97.777344 168.351562 C 96.355469 168.492188 94.929688 168.5625 93.5 168.5625 C 92.070312 168.5625 90.644531 168.492188 89.222656 168.351562 C 87.800781 168.210938 86.390625 168.003906 84.988281 167.722656 C 83.585938 167.445312 82.203125 167.097656 80.835938 166.683594 C 79.46875 166.269531 78.125 165.789062 76.804688 165.242188 C 75.484375 164.695312 74.191406 164.085938 72.933594 163.410156 C 71.671875 162.738281 70.449219 162.003906 69.257812 161.210938 C 68.070312 160.414062 66.925781 159.566406 65.820312 158.660156 C 64.714844 157.75 63.65625 156.792969 62.648438 155.78125 C 61.636719 154.773438 60.679688 153.714844 59.769531 152.609375 C 58.863281 151.503906 58.015625 150.359375 57.21875 149.171875 C 56.425781 147.984375 55.691406 146.757812 55.019531 145.496094 C 54.34375 144.238281 53.734375 142.949219 53.1875 141.628906 C 52.640625 140.308594 52.160156 138.960938 51.746094 137.59375 C 51.332031 136.226562 50.984375 134.84375 50.707031 133.441406 C 50.425781 132.039062 50.21875 130.628906 50.078125 129.207031 C 49.9375 127.785156 49.867188 126.359375 49.867188 124.929688 C 49.867188 123.5 49.9375 122.074219 50.078125 120.652344 C 50.21875 119.230469 50.425781 117.816406 50.707031 116.417969 C 50.984375 115.015625 51.332031 113.628906 51.746094 112.261719 C 52.160156 110.894531 52.640625 109.550781 53.1875 108.230469 C 53.734375 106.910156 54.34375 105.621094 55.019531 104.359375 C 55.691406 103.101562 56.425781 101.875 57.21875 100.6875 C 58.015625 99.5 58.863281 98.351562 59.769531 97.25 C 60.679688 96.144531 61.636719 95.085938 62.648438 94.074219 C 63.65625 93.066406 64.714844 92.105469 65.820312 91.199219 C 66.925781 90.292969 68.070312 89.441406 69.257812 88.648438 C 70.449219 87.855469 71.671875 87.121094 72.933594 86.449219 C 74.191406 85.773438 75.484375 85.164062 76.804688 84.617188 C 78.125 84.070312 79.46875 83.589844 80.835938 83.175781 C 82.203125 82.757812 83.585938 82.414062 84.988281 82.132812 C 86.390625 81.855469 87.800781 81.644531 89.222656 81.503906 C 90.644531 81.367188 92.070312 81.296875 93.5 81.296875 C 94.929688 81.296875 96.355469 81.367188 97.777344 81.503906 C 99.199219 81.644531 100.613281 81.855469 102.011719 82.132812 C 103.414062 82.414062 104.800781 82.757812 106.167969 83.175781 C 107.535156 83.589844 108.878906 84.070312 110.199219 84.617188 C 111.519531 85.164062 112.808594 85.773438 114.070312 86.449219 C 115.328125 87.121094 116.554688 87.855469 117.742188 88.648438 C 118.929688 89.441406 120.078125 90.292969 121.179688 91.199219 C 122.285156 92.105469 123.34375 93.066406 124.355469 94.074219 C 125.363281 95.085938 126.324219 96.144531 127.230469 97.25 C 128.136719 98.351562 128.988281 99.5 129.78125 100.6875 C 130.574219 101.875 131.308594 103.101562 131.980469 104.359375 C 132.65625 105.621094 133.265625 106.910156 133.8125 108.230469 C 134.359375 109.550781 134.839844 110.894531 135.253906 112.261719 C 135.671875 113.628906 136.015625 115.015625 136.296875 116.417969 C 136.574219 117.816406 136.785156 119.230469 136.925781 120.652344 C 137.0625 122.074219 137.132812 123.5 137.132812 124.929688 Z M 137.132812 124.929688 " fill-opacity="1" fill-rule="nonzero"/></g><path fill="#76a7fa" d="M 54.066406 106.230469 C 61.070312 91.488281 76.09375 81.296875 93.5 81.296875 C 110.90625 81.296875 125.933594 91.488281 132.933594 106.230469 Z M 54.066406 106.230469 " fill-opacity="1" fill-rule="nonzero"/></svg>