<svg xmlns="http://www.w3.org/2000/svg" xmlns:xlink="http://www.w3.org/1999/xlink" width="250" zoomAndPan="magnify" viewBox="0 0 187.5 187.499992" height="250" preserveAspectRatio="xMidYMid meet" version="1.0"><defs><clipPath id="2172a17c1a"><path d="M 0 0 L 187 0 L 187 187 L 0 187 Z M 0 0 " clip-rule="nonzero"/></clipPath><clipPath id="412f67fabc"><path d="M 37.398438 0 L 149.601562 0 C 170.257812 0 187 16.746094 187 37.398438 L 187 149.601562 C 187 170.257812 170.257812 187 149.601562 187 L 37.398438 187 C 16.746094 187 0 170.257812 0 149.601562 L 0 37.398438 C 0 16.746094 16.746094 0 37.398438 0 Z M 37.398438 0 " clip-rule="nonzero"/></clipPath><clipPath id="8caa88c288"><path d="M 18.699219 18.699219 L 168.300781 18.699219 L 168.300781 168.300781 L 18.699219 168.300781 Z M 18.699219 18.699219 " clip-rule="nonzero"/></clipPath></defs><g clip-path="url(#2172a17c1a)"><g clip-path="url(#412f67fabc)"><path fill="#007ebb" d="M 0 0 L 187 0 L 187 187 L 0 187 Z M 0 0 " fill-opacity="1" fill-rule="nonzero"/></g></g><g clip-path="url(#8caa88c288)"><path fill="#ffffff" d="M 168.300781 168.300781 L 138.382812 168.300781 L 138.382812 115.945312 C 138.382812 101.585938 132.046875 93.574219 120.683594 93.574219 C 108.320312 93.574219 100.980469 101.921875 100.980469 115.945312 L 100.980469 168.300781 L 71.058594 168.300781 L 71.058594 71.058594 L 100.980469 71.058594 L 100.980469 81.996094 C 100.980469 81.996094 110.367188 65.523438 131.523438 65.523438 C 152.683594 65.523438 168.300781 78.433594 168.300781 105.152344 Z M 36.964844 55.507812 C 26.875 55.507812 18.699219 47.265625 18.699219 37.101562 C 18.699219 26.941406 26.875 18.699219 36.964844 18.699219 C 47.050781 18.699219 55.226562 26.941406 55.226562 37.101562 C 55.234375 47.265625 47.050781 55.507812 36.964844 55.507812 Z M 18.699219 168.300781 L 56.101562 168.300781 L 56.101562 71.058594 L 18.699219 71.058594 Z M 18.699219 168.300781 " fill-opacity="1" fill-rule="evenodd"/></g></svg>