<svg xmlns="http://www.w3.org/2000/svg" xmlns:xlink="http://www.w3.org/1999/xlink" width="250" zoomAndPan="magnify" viewBox="0 0 187.5 187.499992" height="250" preserveAspectRatio="xMidYMid meet" version="1.0"><defs><clipPath id="ee684c1136"><path d="M 0 0 L 187 0 L 187 187 L 0 187 Z M 0 0 " clip-rule="nonzero"/></clipPath><clipPath id="e6327784f3"><path d="M 37.398438 0 L 149.601562 0 C 170.257812 0 187 16.746094 187 37.398438 L 187 149.601562 C 187 170.257812 170.257812 187 149.601562 187 L 37.398438 187 C 16.746094 187 0 170.257812 0 149.601562 L 0 37.398438 C 0 16.746094 16.746094 0 37.398438 0 Z M 37.398438 0 " clip-rule="nonzero"/></clipPath><clipPath id="d2e19d7c07"><path d="M 0 0 L 187 0 L 187 187 L 0 187 Z M 0 0 " clip-rule="nonzero"/></clipPath></defs><g clip-path="url(#ee684c1136)"><g clip-path="url(#e6327784f3)"><path fill="#04d4ac" d="M 0 0 L 187 0 L 187 187 L 0 187 Z M 0 0 " fill-opacity="1" fill-rule="nonzero"/></g></g><g clip-path="url(#d2e19d7c07)"><path fill="#04d4ac" d="M 187.234375 93.324219 C 187.234375 145.042969 145.277344 187 93.617188 187 C 41.898438 187 0 145.042969 0 93.324219 C 0 41.609375 41.898438 -0.351562 93.617188 -0.351562 C 145.277344 -0.351562 187.234375 41.609375 187.234375 93.324219 Z M 100.804688 134.230469 C 92.449219 132.59375 87.480469 127.746094 74.800781 108.929688 C 70.59375 102.617188 70.59375 102.617188 66.503906 102.324219 C 60.484375 101.914062 60.949219 100.863281 61.125 114.128906 C 61.359375 129.207031 61.183594 128.855469 69.890625 130.316406 C 72.171875 130.667969 72.347656 130.84375 72.347656 132.1875 C 72.347656 133.707031 72.347656 133.707031 57.035156 133.824219 C 42.660156 133.941406 41.726562 133.882812 41.433594 133.003906 C 40.847656 131.308594 41.726562 130.492188 44.878906 129.90625 C 48.445312 129.265625 50.316406 127.804688 50.78125 125.347656 C 51.015625 124.414062 51.074219 111.792969 50.957031 97.300781 C 50.78125 66.851562 51.132812 68.664062 45.523438 67.4375 C 42.015625 66.675781 40.90625 65.859375 41.375 64.457031 C 41.726562 63.523438 42.484375 63.464844 58.4375 63.171875 C 82.164062 62.703125 86.605469 63.464844 92.917969 69.074219 C 99.519531 74.976562 100.453125 83.976562 95.195312 91.515625 C 92.859375 94.902344 88.183594 98.527344 84.558594 99.871094 C 82.863281 100.511719 81.460938 101.214844 81.460938 101.449219 C 81.460938 102.148438 86.839844 109.804688 90.167969 113.894531 C 99.050781 124.707031 103.84375 128.914062 108.8125 130.199219 C 111.910156 131.019531 112.785156 131.894531 111.910156 133.414062 C 110.972656 134.992188 106.296875 135.34375 100.804688 134.230469 Z M 78.421875 95.488281 C 90.109375 90.695312 90.988281 74.625 79.882812 69.890625 C 77.019531 68.664062 76.261719 68.605469 69.074219 68.605469 C 61.300781 68.605469 61.300781 68.605469 61.183594 82.105469 C 61.066406 89.527344 61.125 95.953125 61.300781 96.304688 C 61.828125 97.53125 74.976562 96.890625 78.421875 95.488281 Z M 119.15625 78.832031 C 110.097656 77.136719 107.117188 71.585938 107.585938 57.328125 C 107.816406 49.4375 108.460938 47.277344 111.5 44.003906 C 116.875 38.21875 130.199219 38.746094 135.109375 44.9375 C 137.210938 47.570312 137.035156 48.386719 134.113281 49.261719 C 131.835938 50.023438 131.835938 50.023438 129.730469 47.917969 C 124.765625 43.128906 116.175781 44.878906 114.65625 51.074219 C 113.894531 53.820312 113.953125 65.449219 114.714844 68.082031 C 116.757812 75.5 129.089844 75.5 131.191406 68.082031 C 132.480469 63.347656 132.1875 62.996094 126.519531 62.703125 C 123.773438 62.585938 123.773438 62.585938 123.773438 60.308594 C 123.773438 58.085938 123.773438 58.085938 130.316406 57.910156 C 138.789062 57.738281 138.671875 57.621094 138.265625 63.8125 C 137.738281 71.585938 135.632812 75.328125 130.550781 77.546875 C 127.21875 78.949219 122.660156 79.476562 119.15625 78.832031 Z M 119.15625 78.832031 " fill-opacity="1" fill-rule="nonzero"/></g><path fill="#ffffff" d="M 100.804688 134.230469 C 92.449219 132.59375 87.480469 127.746094 74.800781 108.929688 C 70.59375 102.617188 70.59375 102.617188 66.503906 102.324219 C 60.484375 101.914062 60.949219 100.863281 61.125 114.128906 C 61.359375 129.207031 61.183594 128.855469 69.890625 130.316406 C 72.171875 130.667969 72.347656 130.84375 72.347656 132.1875 C 72.347656 133.707031 72.347656 133.707031 57.035156 133.824219 C 42.660156 133.941406 41.726562 133.882812 41.433594 133.003906 C 40.847656 131.308594 41.726562 130.492188 44.878906 129.90625 C 48.445312 129.265625 50.316406 127.804688 50.78125 125.347656 C 51.015625 124.414062 51.074219 111.792969 50.957031 97.300781 C 50.78125 66.851562 51.132812 68.664062 45.523438 67.4375 C 42.015625 66.675781 40.90625 65.859375 41.375 64.457031 C 41.726562 63.523438 42.484375 63.464844 58.4375 63.171875 C 82.164062 62.703125 86.605469 63.464844 92.917969 69.074219 C 99.519531 74.976562 100.453125 83.976562 95.195312 91.515625 C 92.859375 94.902344 88.183594 98.527344 84.558594 99.871094 C 82.863281 100.511719 81.460938 101.214844 81.460938 101.449219 C 81.460938 102.148438 86.839844 109.804688 90.167969 113.894531 C 99.050781 124.707031 103.84375 128.914062 108.8125 130.199219 C 111.910156 131.019531 112.785156 131.894531 111.910156 133.414062 C 110.972656 134.992188 106.296875 135.34375 100.804688 134.230469 Z M 78.421875 95.488281 C 90.109375 90.695312 90.988281 74.625 79.882812 69.890625 C 77.019531 68.664062 76.261719 68.605469 69.074219 68.605469 C 61.300781 68.605469 61.300781 68.605469 61.183594 82.105469 C 61.066406 89.527344 61.125 95.953125 61.300781 96.304688 C 61.828125 97.53125 74.976562 96.890625 78.421875 95.488281 Z M 119.15625 78.832031 C 110.097656 77.136719 107.117188 71.585938 107.585938 57.328125 C 107.816406 49.4375 108.460938 47.277344 111.5 44.003906 C 116.875 38.21875 130.199219 38.746094 135.109375 44.9375 C 137.210938 47.570312 137.035156 48.386719 134.113281 49.261719 C 131.835938 50.023438 131.835938 50.023438 129.730469 47.917969 C 124.765625 43.128906 116.175781 44.878906 114.65625 51.074219 C 113.894531 53.820312 113.953125 65.449219 114.714844 68.082031 C 116.757812 75.5 129.089844 75.5 131.191406 68.082031 C 132.480469 63.347656 132.1875 62.996094 126.519531 62.703125 C 123.773438 62.585938 123.773438 62.585938 123.773438 60.308594 C 123.773438 58.085938 123.773438 58.085938 130.316406 57.910156 C 138.789062 57.738281 138.671875 57.621094 138.265625 63.8125 C 137.738281 71.585938 135.632812 75.328125 130.550781 77.546875 C 127.21875 78.949219 122.660156 79.476562 119.15625 78.832031 Z M 119.15625 78.832031 Z M 119.15625 78.832031 " fill-opacity="1" fill-rule="nonzero"/></svg>